<?xml version="1.0" standalone="no"?>
<!DOCTYPE svg PUBLIC "-//W3C//DTD SVG 20010904//EN"
 "http://www.w3.org/TR/2001/REC-SVG-20010904/DTD/svg10.dtd">
<svg version="1.0" xmlns="http://www.w3.org/2000/svg"
 width="300.000000pt" height="308.000000pt" viewBox="0 0 300.000000 308.000000"
 preserveAspectRatio="xMidYMid meet">
<metadata>
Created by potrace 1.10, written by Peter Selinger 2001-2011
</metadata>
<g transform="translate(0.000000,308.000000) scale(0.100000,-0.100000)"
fill="#308630" stroke="none">
<path d="M320 3071 c-72 -22 -128 -69 -164 -136 l-21 -40 -3 -1333 -2 -1332
-30 0 c-48 0 -77 -16 -89 -51 -22 -63 -7 -150 29 -169 12 -6 298 -10 768 -10
877 0 797 -11 797 114 0 90 -11 106 -79 113 l-46 6 0 578 c0 319 4 579 8 579
5 0 17 -6 28 -14 18 -14 19 -34 24 -514 5 -489 5 -501 26 -529 46 -62 71 -68
271 -68 199 0 208 2 257 69 20 27 21 41 26 598 6 662 -6 601 120 596 l75 -3 3
-80 c4 -140 24 -155 206 -155 l125 0 3 -32 c2 -25 8 -33 23 -33 18 0 20 8 23
73 l3 72 123 0 c110 0 126 2 150 21 30 24 33 48 9 78 -16 19 -30 21 -148 23
l-130 3 -3 83 -3 82 124 0 c111 0 127 2 151 21 30 24 33 48 9 78 -16 19 -30
21 -148 23 l-130 3 -5 75 c-4 67 -7 75 -25 75 -15 0 -21 -8 -23 -32 l-3 -31
-135 -4 -136 -3 -29 -33 c-27 -30 -29 -38 -29 -112 l0 -80 -87 0 c-67 0 -96
-5 -129 -20 -83 -41 -78 -3 -84 -641 -5 -540 -6 -568 -24 -588 -18 -19 -29
-21 -161 -21 -126 0 -146 2 -166 19 l-24 19 -5 499 c-5 496 -5 498 -27 529
-21 30 -85 64 -118 64 -13 0 -15 87 -15 683 0 439 -4 695 -10 719 -16 56 -69
119 -125 147 l-49 26 -476 2 c-261 1 -486 -2 -500 -6z m946 -223 l34 -38 0
-295 0 -295 -34 -38 -34 -37 -414 -3 -414 -3 -34 23 c-59 40 -60 46 -60 353 0
307 1 313 60 353 l34 23 414 -3 414 -3 34 -37z m-563 -1688 c38 -12 141 -55
229 -97 155 -73 163 -76 256 -83 110 -7 135 -17 159 -63 16 -31 22 -125 8
-147 -3 -5 -33 -10 -66 -10 -53 0 -60 2 -69 24 -32 86 -168 86 -200 0 l-10
-24 -214 0 -215 0 -16 29 c-44 85 -162 82 -195 -5 -8 -21 -16 -24 -59 -24
l-49 0 -7 105 c-4 57 -5 119 -1 137 14 74 73 134 167 169 68 25 183 21 282
-11z m-178 -355 c62 -61 -3 -162 -86 -133 -34 12 -63 64 -52 95 22 64 93 84
138 38z m649 4 c56 -44 19 -142 -54 -142 -73 0 -110 98 -54 142 15 12 39 21
54 21 15 0 39 -9 54 -21z"/>
<path d="M687 1065 c-20 -19 -20 -19 -6 -67 l10 -38 134 0 c74 0 135 4 135 8
0 18 -60 64 -107 82 -78 29 -146 36 -166 15z"/>
</g>
</svg>
